<svg width="48" height="48" viewBox="0 0 48 48" fill="none" xmlns="http://www.w3.org/2000/svg">
<path fill-rule="evenodd" clip-rule="evenodd" d="M41.621 28.1645C41.369 27.3885 40.932 26.6775 40.324 26.0345C39.687 25.3625 38.85 24.8425 37.812 24.4665C36.773 24.0935 35.439 23.9045 33.795 23.9045H31.564C31.83 21.1585 32.808 18.8215 34.5 16.8895C36.189 14.9635 38.531 13.2685 41.525 11.8145L39.709 9.00049C35.767 10.6795 32.394 13.1355 29.592 16.3795C26.791 19.6265 25.396 22.8435 25.396 26.0345C25.396 29.4625 26.205 32.1515 27.836 34.0925C29.467 36.0335 31.803 37.0005 34.84 37.0005C36.767 37.0005 38.441 36.3575 39.865 35.0725C41.287 33.7895 42 32.2865 42 30.5725C42 29.7455 41.875 28.9405 41.621 28.1645ZM21.225 28.1645C20.971 27.3885 20.535 26.6775 19.926 26.0345C19.291 25.3625 18.453 24.8425 17.414 24.4665C16.377 24.0935 15.043 23.9045 13.398 23.9045H11.166C11.433 21.1585 12.41 18.8215 14.101 16.8895C15.791 14.9635 18.135 13.2685 21.127 11.8145L19.312 9.00049C15.369 10.6795 11.998 13.1355 9.19501 16.3795C6.39401 19.6265 5 22.8435 5 26.0345C5 29.4625 5.807 32.1515 7.439 34.0925C9.068 36.0335 11.404 37.0005 14.443 37.0005C16.369 37.0005 18.045 36.3575 19.469 35.0725C20.891 33.7895 21.603 32.2865 21.603 30.5725C21.603 29.7455 21.476 28.9405 21.225 28.1645Z" fill="black"/>
</svg>
